<svg width="22" height="22" viewBox="0 0 22 22" fill="none" xmlns="http://www.w3.org/2000/svg">
<path d="M11.768 0.0268973C10.1965 -0.0832033 8.61965 0.145549 7.14423 0.697675C5.66881 1.2498 4.3292 2.11242 3.21605 3.22715C2.10291 4.34188 1.24221 5.68272 0.692187 7.15893C0.142166 8.63514 -0.084337 10.2123 0.0280049 11.7836C0.431453 17.6076 5.5955 22 12.0395 22H17.8755C18.969 21.9985 20.0173 21.5635 20.7905 20.7903C21.5637 20.0171 21.9988 18.9688 22.0002 17.8753V11.326C22.0002 5.38086 17.506 0.417456 11.768 0.0268973ZM21.0834 17.8753C21.0824 18.7258 20.7442 19.5412 20.1428 20.1426C19.5414 20.7439 18.726 21.0822 17.8755 21.0831H12.0395C5.98606 21.0831 1.31955 17.1457 0.944034 11.7209C0.844852 10.3384 1.03181 8.9503 1.49323 7.64332C1.95465 6.33633 2.68061 5.13853 3.62578 4.12474C4.57094 3.11095 5.715 2.30294 6.98649 1.75119C8.25798 1.19945 9.62959 0.915812 11.0156 0.918006C11.2446 0.918006 11.4758 0.925311 11.7057 0.940778C16.9642 1.29825 21.0825 5.85949 21.0825 11.3252V17.8753H21.0834Z" fill="white"/>
<path d="M11.0012 11.0008C10.5026 11.0009 10.0152 10.8531 9.60061 10.5762C9.18601 10.2993 8.86285 9.9056 8.67199 9.445C8.48113 8.98439 8.43115 8.47752 8.52836 7.98851C8.62558 7.49949 8.86563 7.05029 9.21815 6.69771C9.57068 6.34512 10.0198 6.105 10.5088 6.0077C10.9978 5.9104 11.5047 5.96029 11.9653 6.15107C12.426 6.34185 12.8197 6.66495 13.0967 7.0795C13.3737 7.49406 13.5216 7.98144 13.5216 8.48003C13.5208 9.14827 13.255 9.78892 12.7825 10.2615C12.3101 10.734 11.6694 10.9999 11.0012 11.0008ZM11.0012 6.79964C10.6689 6.79964 10.344 6.89819 10.0676 7.08284C9.7913 7.26748 9.57592 7.52992 9.44873 7.83697C9.32155 8.14402 9.28827 8.48189 9.35311 8.80786C9.41795 9.13382 9.57799 9.43324 9.81299 9.66824C10.048 9.90325 10.3474 10.0633 10.6734 10.1281C10.9993 10.193 11.3372 10.1597 11.6443 10.0325C11.9513 9.90532 12.2138 9.68994 12.3984 9.4136C12.583 9.13726 12.6816 8.81238 12.6816 8.48003C12.681 8.03454 12.5038 7.60745 12.1888 7.29244C11.8738 6.97743 11.4467 6.80021 11.0012 6.79964ZM15.202 15.6218C15.202 13.608 13.2384 11.8408 11.0012 11.8408C8.76398 11.8408 6.80002 13.608 6.80002 15.6218C6.79822 15.6781 6.80775 15.7341 6.82805 15.7867C6.84834 15.8392 6.87899 15.8871 6.91817 15.9276C6.95734 15.968 7.00425 16.0002 7.05611 16.0221C7.10796 16.0441 7.1637 16.0554 7.22001 16.0554C7.27632 16.0554 7.33206 16.0441 7.38391 16.0221C7.43577 16.0002 7.48267 15.968 7.52185 15.9276C7.56103 15.8871 7.59168 15.8392 7.61197 15.7867C7.63227 15.7341 7.6418 15.6781 7.64 15.6218C7.64 14.234 9.07677 12.6812 11.0012 12.6812C12.9256 12.6812 14.362 14.234 14.362 15.6218C14.3602 15.6781 14.3697 15.7341 14.39 15.7867C14.4103 15.8392 14.441 15.8871 14.4801 15.9276C14.5193 15.968 14.5662 16.0002 14.6181 16.0221C14.6699 16.0441 14.7257 16.0554 14.782 16.0554C14.8383 16.0554 14.894 16.0441 14.9459 16.0221C14.9977 16.0002 15.0446 15.968 15.0838 15.9276C15.123 15.8871 15.1536 15.8392 15.1739 15.7867C15.1942 15.7341 15.2038 15.6781 15.202 15.6218Z" fill="white"/>
</svg>
