<svg width="50" height="50" viewBox="0 0 50 50" fill="none" xmlns="http://www.w3.org/2000/svg">
<rect width="50" height="50" rx="5" fill="white"/>
<path d="M23.0795 35C23.0795 34.9229 23.0795 34.8459 23.0795 34.7688C23.0795 31.8806 23.0795 28.9933 23.0795 26.107C23.0795 25.9272 23.0309 25.8815 22.854 25.8844C21.9635 25.8844 21.0731 25.8844 20.1827 25.8844C20.0371 25.8844 20 25.8501 20 25.7017C20 24.6362 20 23.5698 20 22.5024C20 22.354 20.0428 22.3226 20.1855 22.3226C21.0874 22.3226 21.9921 22.3226 22.894 22.3226C23.0424 22.3226 23.0795 22.2826 23.0795 22.1371C23.0795 21.2009 23.0595 20.2648 23.0795 19.3287C23.0763 18.2057 23.4961 17.1225 24.2553 16.2949C24.8493 15.6872 25.6171 15.2784 26.4529 15.1248C27.1587 15.0046 27.8766 14.9711 28.5905 15.0249C29.1214 15.0477 29.6522 15.0963 30.1859 15.1248C30.3172 15.1248 30.3743 15.1619 30.3714 15.316C30.3714 16.2635 30.3714 17.2139 30.3714 18.17C30.3714 18.3155 30.3258 18.3355 30.1973 18.3355C29.4895 18.3355 28.7703 18.3041 28.0711 18.3612C27.2377 18.4297 26.7697 18.8892 26.7468 19.7254C26.724 20.5617 26.7468 21.375 26.7269 22.2027C26.7269 22.354 26.8153 22.3254 26.9038 22.3254C27.9427 22.3254 28.9844 22.3254 30.0232 22.3254C30.1802 22.3254 30.2487 22.3254 30.2202 22.5309C30.0746 23.584 29.9348 24.6429 29.812 25.6988C29.7949 25.8387 29.7521 25.8872 29.598 25.8872C28.7018 25.8872 27.8057 25.8872 26.9067 25.8872C26.7839 25.8872 26.7269 25.8872 26.7269 26.0499C26.7269 29.0009 26.7269 31.95 26.7269 34.8973C26.7269 34.9315 26.7269 34.9629 26.7269 34.9943L23.0795 35Z" fill="#316FF6"/>
</svg>
