<svg width="50" height="50" viewBox="0 0 50 50" fill="none" xmlns="http://www.w3.org/2000/svg">
<rect width="50" height="50" rx="5" fill="white"/>
<path d="M30.0626 35H19.8323C19.6005 34.93 19.3635 34.8784 19.1236 34.8457C18.17 34.6146 17.2977 34.1272 16.6011 33.4362C15.9045 32.7451 15.4101 31.8768 15.1715 30.925C15.1319 30.6661 15.0746 30.4102 15 30.1592V19.8488C15.0514 19.8345 15.0371 19.7888 15.0429 19.7516C15.0982 19.2471 15.2322 18.7544 15.4401 18.2914C16.4431 16.1796 18.1148 15.0451 20.4581 15.0165C23.4815 14.9794 26.5077 15.0165 29.534 15.0165C30.2911 15.0004 31.0421 15.1547 31.7315 15.468C33.8576 16.4796 34.9663 18.177 34.9892 20.5346C35.0149 23.5208 34.9892 26.5071 34.9892 29.4933C34.9986 29.9693 34.9429 30.4442 34.8235 30.905C34.5897 31.8569 34.0992 32.7264 33.4053 33.4188C32.7115 34.1111 31.8409 34.5997 30.8885 34.8314C30.6199 34.9086 30.337 34.9457 30.0626 35ZM30.4541 24.9982C30.4541 23.9175 30.1338 22.8611 29.5336 21.9623C28.9334 21.0636 28.0803 20.3629 27.0821 19.9488C26.0839 19.5347 24.9853 19.4258 23.9252 19.6358C22.8651 19.8458 21.891 20.3653 21.126 21.1287C20.361 21.8921 19.8394 22.8651 19.6272 23.9248C19.415 24.9845 19.5216 26.0832 19.9336 27.0823C20.3456 28.0815 21.0445 28.936 21.942 29.5381C22.8395 30.1401 23.8953 30.4627 24.976 30.4649C26.425 30.4619 27.8141 29.8862 28.8403 28.8632C29.8665 27.8402 30.4466 26.4529 30.4541 25.004V24.9982ZM30.5827 20.8204C30.9027 20.8209 31.2157 20.7266 31.4821 20.5492C31.7485 20.3718 31.9562 20.1194 32.0791 19.8239C32.2019 19.5284 32.2344 19.2031 32.1723 18.8892C32.1102 18.5752 31.9564 18.2868 31.7303 18.0603C31.5042 17.8338 31.216 17.6795 30.9022 17.6168C30.5884 17.5542 30.263 17.5861 29.9673 17.7084C29.6716 17.8307 29.4188 18.038 29.2409 18.3041C29.0631 18.5701 28.9682 18.8829 28.9682 19.203C28.9711 19.6311 29.1419 20.0409 29.4438 20.3444C29.7457 20.6479 30.1547 20.8209 30.5827 20.8261V20.8204Z" fill="#FA7E1E"/>
<path d="M29.2761 24.9955C29.2761 25.8432 29.0247 26.672 28.5537 27.3769C28.0827 28.0818 27.4132 28.6312 26.63 28.9556C25.8467 29.2801 24.9848 29.3649 24.1534 29.1995C23.3219 29.0341 22.5581 28.6259 21.9586 28.0264C21.3591 27.427 20.9509 26.6632 20.7855 25.8317C20.6201 25.0002 20.705 24.1383 21.0294 23.3551C21.3538 22.5718 21.9033 21.9024 22.6082 21.4314C23.3131 20.9604 24.1418 20.709 24.9896 20.709C26.1246 20.715 27.2114 21.1685 28.014 21.9711C28.8165 22.7737 29.2701 23.8605 29.2761 24.9955Z" fill="#FA7E1E"/>
<path d="M31.0265 19.2116C31.0265 19.2997 31.0002 19.3858 30.951 19.4589C30.9018 19.5319 30.8319 19.5887 30.7503 19.6218C30.6687 19.655 30.5791 19.6631 30.4929 19.645C30.4066 19.627 30.3278 19.5837 30.2663 19.5206C30.2048 19.4575 30.1636 19.3775 30.1478 19.2908C30.132 19.2042 30.1424 19.1148 30.1777 19.0341C30.213 18.9534 30.2715 18.885 30.3459 18.8377C30.4202 18.7905 30.5069 18.7664 30.595 18.7687C30.7093 18.7751 30.8171 18.8241 30.897 18.9061C30.9769 18.9882 31.0231 19.0972 31.0265 19.2116Z" fill="#FA7E1E"/>
</svg>
