<svg width="50" height="50" viewBox="0 0 50 50" fill="none" xmlns="http://www.w3.org/2000/svg">
<rect width="50" height="50" rx="5" fill="white"/>
<path d="M26.0476 23.4317C26.3968 22.916 26.8374 22.4686 27.3476 22.1117C28.3962 21.3974 29.5676 21.2545 30.7962 21.3602C31.5937 21.4062 32.3664 21.654 33.0419 22.0802C33.9848 22.7088 34.4505 23.646 34.7076 24.7088C34.921 25.6863 35.0169 26.6857 34.9933 27.6859C34.9933 30.0345 34.9933 32.3859 34.9933 34.7345C34.9933 34.9145 34.959 34.9688 34.7705 34.9659C33.5343 34.9659 32.2962 34.9659 31.0562 34.9659C30.8705 34.9659 30.8305 34.9202 30.8334 34.7402C30.8334 32.504 30.8334 30.2679 30.8334 28.0317C30.8371 27.5677 30.795 27.1045 30.7076 26.6488C30.4219 25.2688 29.5391 24.8259 28.2905 24.9717C27.1248 25.1117 26.4933 25.8002 26.2905 27.0574C26.2248 27.5154 26.1932 27.9776 26.1962 28.4402C26.1962 30.5488 26.1962 32.6545 26.1962 34.7602C26.1962 34.9488 26.1533 35.0002 25.9591 35.0002C24.7305 35.0002 23.5029 35.0002 22.2762 35.0002C22.1076 35.0002 22.0391 34.9831 22.0391 34.7831C22.0391 30.4745 22.0391 26.165 22.0391 21.8545C22.0391 21.6745 22.0991 21.6459 22.2619 21.6459C23.4391 21.6459 24.619 21.6459 25.799 21.6459C25.9905 21.6459 26.0276 21.706 26.0219 21.8802C26.039 22.3945 26.0476 22.9145 26.0476 23.4317Z" fill="#0077B5"/>
<path d="M15.3338 28.3292C15.3338 26.1835 15.3338 24.0434 15.3338 21.8949C15.3338 21.692 15.3852 21.6406 15.5881 21.6406C16.8081 21.6406 18.0253 21.6406 19.2453 21.6406C19.4253 21.6406 19.4938 21.6692 19.4938 21.8749C19.4938 26.172 19.4938 30.4711 19.4938 34.772C19.4938 34.9606 19.4396 34.9978 19.2624 34.9978C18.0281 34.9978 16.791 34.9978 15.5481 34.9978C15.351 34.9978 15.3281 34.9349 15.3281 34.7635C15.3367 32.6206 15.3338 30.4749 15.3338 28.3292Z" fill="#0077B5"/>
<path d="M19.8 17.4057C19.7989 17.88 19.6572 18.3434 19.393 18.7372C19.1287 19.1311 18.7536 19.4378 18.3152 19.6187C17.8767 19.7995 17.3944 19.8464 16.9293 19.7534C16.4642 19.6604 16.0371 19.4316 15.7019 19.096C15.3668 18.7605 15.1385 18.3331 15.046 17.8679C14.9536 17.4027 15.001 16.9205 15.1824 16.4822C15.3638 16.044 15.671 15.6693 16.0652 15.4055C16.4593 15.1417 16.9228 15.0006 17.3972 15C18.0335 15.0045 18.6425 15.2595 19.0923 15.7098C19.542 16.1601 19.7962 16.7693 19.8 17.4057Z" fill="#0077B5"/>
</svg>
