<svg width="50" height="50" viewBox="0 0 50 50" fill="none" xmlns="http://www.w3.org/2000/svg">
<rect width="50" height="50" rx="5" fill="white"/>
<g clip-path="url(#clip0_2_1010)">
<path d="M24.6875 15.3125C19.3359 15.3125 15 19.6484 15 25C15 30.3516 19.3359 34.6875 24.6875 34.6875C30.0391 34.6875 34.375 30.3516 34.375 25C34.375 19.6484 30.0391 15.3125 24.6875 15.3125ZM29.1797 21.9023C29.0352 23.4336 28.4023 27.1523 28.082 28.8672C27.9453 29.5938 27.6797 29.8359 27.4219 29.8594C26.8594 29.9102 26.4336 29.4883 25.8867 29.1289C25.0352 28.5703 24.5508 28.2227 23.7266 27.6758C22.7695 27.0469 23.3906 26.6992 23.9336 26.1328C24.0781 25.9844 26.5547 23.7305 26.6016 23.5273C26.6094 23.5 26.6133 23.4062 26.5547 23.3555C26.4961 23.3047 26.4141 23.3242 26.3555 23.3359C26.2695 23.3542 24.9076 24.2539 22.2695 26.0352C21.8841 26.3008 21.5339 26.4297 21.2188 26.4219C20.8711 26.4141 20.207 26.2266 19.7109 26.0664C19.1055 25.8711 18.6211 25.7656 18.6641 25.4297C18.6849 25.2552 18.9258 25.0768 19.3867 24.8945C22.2096 23.6654 24.0924 22.8542 25.0352 22.4609C27.7266 21.3438 28.2852 21.1484 28.6484 21.1406C28.7305 21.1406 28.9062 21.1602 29.0234 21.2539C29.0999 21.3211 29.1487 21.4144 29.1602 21.5156C29.1813 21.6434 29.1878 21.7731 29.1797 21.9023Z" fill="#0088CC"/>
</g>
<defs>
<clipPath id="clip0_2_1010">
<rect width="19.375" height="20" fill="white" transform="translate(15 15)"/>
</clipPath>
</defs>
</svg>
