<svg width="50" height="50" viewBox="0 0 50 50" fill="none" xmlns="http://www.w3.org/2000/svg">
<rect width="50" height="50" rx="5" fill="white"/>
<g clip-path="url(#clip0_2_1014)">
<path d="M33.5 23.1992C31.7797 23.2029 30.1017 22.6659 28.7031 21.6641V28.6484C28.7027 29.942 28.3074 31.2046 27.57 32.2673C26.8326 33.3301 25.7882 34.1424 24.5767 34.5955C23.3651 35.0487 22.0441 35.1211 20.7902 34.8031C19.5364 34.4852 18.4095 33.7919 17.5603 32.8161C16.7111 31.8404 16.1801 30.6286 16.0383 29.3428C15.8965 28.0571 16.1506 26.7587 16.7667 25.6213C17.3828 24.4839 18.3315 23.5617 19.4859 22.9781C20.6403 22.3945 21.9454 22.1773 23.2266 22.3555V25.8672C22.6407 25.6828 22.0116 25.6882 21.429 25.8826C20.8464 26.077 20.3402 26.4506 19.9825 26.9499C19.6249 27.4492 19.4342 28.0487 19.4375 28.6629C19.4409 29.2771 19.6383 29.8744 20.0014 30.3698C20.3646 30.8651 20.8749 31.233 21.4596 31.421C22.0443 31.609 22.6735 31.6074 23.2572 31.4165C23.841 31.2256 24.3495 30.8552 24.7102 30.3581C25.0709 29.861 25.2653 29.2626 25.2656 28.6484V15H28.7031C28.7012 15.2907 28.726 15.581 28.7773 15.8672C28.8969 16.5051 29.1453 17.1119 29.5073 17.6505C29.8693 18.1892 30.3373 18.6484 30.8828 19C31.6593 19.5128 32.5695 19.7859 33.5 19.7852V23.1992Z" fill="#FF0050"/>
</g>
<defs>
<clipPath id="clip0_2_1014">
<rect width="17.5" height="20" fill="white" transform="translate(16 15)"/>
</clipPath>
</defs>
</svg>
