<svg width="50" height="50" viewBox="0 0 50 50" fill="none" xmlns="http://www.w3.org/2000/svg">
<rect width="50" height="50" rx="5" fill="white"/>
<g clip-path="url(#clip0_2_1018)">
<path d="M30.8789 18.793C29.2422 17.1523 27.0625 16.25 24.7461 16.25C19.9648 16.25 16.0742 20.1406 16.0742 24.9219C16.0742 26.4492 16.4727 27.9414 17.2305 29.2578L16 33.75L20.5977 32.543C21.8633 33.2344 23.2891 33.5977 24.7422 33.5977H24.7461C29.5234 33.5977 33.5 29.707 33.5 24.9258C33.5 22.6094 32.5156 20.4336 30.8789 18.793ZM24.7461 32.1367C23.4492 32.1367 22.1797 31.7891 21.0742 31.1328L20.8125 30.9766L18.0859 31.6914L18.8125 29.0312L18.6406 28.7578C17.918 27.6094 17.5391 26.2852 17.5391 24.9219C17.5391 20.9492 20.7734 17.7148 24.75 17.7148C26.6758 17.7148 28.4844 18.4648 29.8438 19.8281C31.2031 21.1914 32.0391 23 32.0352 24.9258C32.0352 28.9023 28.7188 32.1367 24.7461 32.1367ZM28.6992 26.7383C28.4844 26.6289 27.418 26.1055 27.2188 26.0352C27.0195 25.9609 26.875 25.9258 26.7305 26.1445C26.5859 26.3633 26.1719 26.8477 26.043 26.9961C25.918 27.1406 25.7891 27.1602 25.5742 27.0508C24.3008 26.4141 23.4648 25.9141 22.625 24.4727C22.4023 24.0898 22.8477 24.1172 23.2617 23.2891C23.332 23.1445 23.2969 23.0195 23.2422 22.9102C23.1875 22.8008 22.7539 21.7344 22.5742 21.3008C22.3984 20.8789 22.2188 20.9375 22.0859 20.9297C21.9609 20.9219 21.8164 20.9219 21.6719 20.9219C21.5273 20.9219 21.293 20.9766 21.0938 21.1914C20.8945 21.4102 20.3359 21.9336 20.3359 23C20.3359 24.0664 21.1133 25.0977 21.2188 25.2422C21.3281 25.3867 22.7461 27.5742 24.9219 28.5156C26.2969 29.1094 26.8359 29.1602 27.5234 29.0586C27.9414 28.9961 28.8047 28.5352 28.9844 28.0273C29.1641 27.5195 29.1641 27.0859 29.1094 26.9961C29.0586 26.8984 28.9141 26.8438 28.6992 26.7383Z" fill="#128C7E"/>
</g>
<defs>
<clipPath id="clip0_2_1018">
<rect width="17.5" height="20" fill="white" transform="translate(16 15)"/>
</clipPath>
</defs>
</svg>
